<svg xmlns="http://www.w3.org/2000/svg" viewBox="0 0 512 512" width="512" height="512">
  <defs>
    <linearGradient id="g" x1="0" y1="0" x2="1" y2="1">
      <stop offset="0" stop-color="#3b82f6"/>
      <stop offset="1" stop-color="#6366f1"/>
    </linearGradient>
  </defs>
  <rect width="512" height="512" fill="url(#g)"/>
  <!-- Destello principal (sparkle) -->
  <path fill="#ffffff" d="M256 108
    C 274 214, 298 238, 404 256
    C 298 274, 274 298, 256 404
    C 238 298, 214 274, 108 256
    C 214 238, 238 214, 256 108 Z"/>
  <!-- Destello secundario -->
  <path fill="#ffffff" opacity="0.9" d="M378 96
    C 384 128, 392 136, 424 142
    C 392 148, 384 156, 378 188
    C 372 156, 364 148, 332 142
    C 364 136, 372 128, 378 96 Z"/>
</svg>
